%TF.GenerationSoftware,KiCad,Pcbnew,(6.0.5-0)*%
%TF.CreationDate,2022-07-20T20:00:40-04:00*%
%TF.ProjectId,raaid_clock_final,72616169-645f-4636-9c6f-636b5f66696e,rev?*%
%TF.SameCoordinates,PX4c4b400PY8a48640*%
%TF.FileFunction,Legend,Top*%
%TF.FilePolarity,Positive*%
%FSLAX46Y46*%
G04 Gerber Fmt 4.6, Leading zero omitted, Abs format (unit mm)*
G04 Created by KiCad (PCBNEW (6.0.5-0)) date 2022-07-20 20:00:40*
%MOMM*%
%LPD*%
G01*
G04 APERTURE LIST*
G04 Aperture macros list*
%AMRoundRect*
0 Rectangle with rounded corners*
0 $1 Rounding radius*
0 $2 $3 $4 $5 $6 $7 $8 $9 X,Y pos of 4 corners*
0 Add a 4 corners polygon primitive as box body*
4,1,4,$2,$3,$4,$5,$6,$7,$8,$9,$2,$3,0*
0 Add four circle primitives for the rounded corners*
1,1,$1+$1,$2,$3*
1,1,$1+$1,$4,$5*
1,1,$1+$1,$6,$7*
1,1,$1+$1,$8,$9*
0 Add four rect primitives between the rounded corners*
20,1,$1+$1,$2,$3,$4,$5,0*
20,1,$1+$1,$4,$5,$6,$7,0*
20,1,$1+$1,$6,$7,$8,$9,0*
20,1,$1+$1,$8,$9,$2,$3,0*%
G04 Aperture macros list end*
%ADD10C,0.300000*%
%ADD11C,0.150000*%
%ADD12C,0.120000*%
%ADD13C,0.250000*%
%ADD14C,3.200000*%
%ADD15C,2.000000*%
%ADD16R,1.150000X1.400000*%
%ADD17R,2.000000X2.000000*%
%ADD18R,1.700000X1.700000*%
%ADD19O,1.700000X1.700000*%
%ADD20R,1.600000X1.600000*%
%ADD21O,1.600000X1.600000*%
%ADD22R,1.600000X1.400000*%
%ADD23R,1.400000X1.150000*%
%ADD24RoundRect,0.243750X-0.243750X-0.456250X0.243750X-0.456250X0.243750X0.456250X-0.243750X0.456250X0*%
%ADD25R,4.500000X2.000000*%
%ADD26R,1.400000X1.400000*%
%ADD27C,1.400000*%
%ADD28R,0.900000X0.800000*%
%ADD29R,1.000000X1.800000*%
%ADD30R,1.200000X2.200000*%
%ADD31R,5.800000X6.400000*%
%ADD32R,3.000000X3.000000*%
%ADD33C,3.000000*%
%ADD34RoundRect,0.500000X1.750000X0.500000X-1.750000X0.500000X-1.750000X-0.500000X1.750000X-0.500000X0*%
%ADD35RoundRect,0.500000X-0.500000X1.500000X-0.500000X-1.500000X0.500000X-1.500000X0.500000X1.500000X0*%
G04 APERTURE END LIST*
D10*
X102464285Y5321429D02*
X101964285Y6035715D01*
X101607142Y5321429D02*
X101607142Y6821429D01*
X102178571Y6821429D01*
X102321428Y6750000D01*
X102392857Y6678572D01*
X102464285Y6535715D01*
X102464285Y6321429D01*
X102392857Y6178572D01*
X102321428Y6107143D01*
X102178571Y6035715D01*
X101607142Y6035715D01*
X103750000Y5321429D02*
X103750000Y6107143D01*
X103678571Y6250000D01*
X103535714Y6321429D01*
X103250000Y6321429D01*
X103107142Y6250000D01*
X103750000Y5392858D02*
X103607142Y5321429D01*
X103250000Y5321429D01*
X103107142Y5392858D01*
X103035714Y5535715D01*
X103035714Y5678572D01*
X103107142Y5821429D01*
X103250000Y5892858D01*
X103607142Y5892858D01*
X103750000Y5964286D01*
X105107142Y5321429D02*
X105107142Y6107143D01*
X105035714Y6250000D01*
X104892857Y6321429D01*
X104607142Y6321429D01*
X104464285Y6250000D01*
X105107142Y5392858D02*
X104964285Y5321429D01*
X104607142Y5321429D01*
X104464285Y5392858D01*
X104392857Y5535715D01*
X104392857Y5678572D01*
X104464285Y5821429D01*
X104607142Y5892858D01*
X104964285Y5892858D01*
X105107142Y5964286D01*
X105821428Y5321429D02*
X105821428Y6321429D01*
X105821428Y6821429D02*
X105750000Y6750000D01*
X105821428Y6678572D01*
X105892857Y6750000D01*
X105821428Y6821429D01*
X105821428Y6678572D01*
X107178571Y5321429D02*
X107178571Y6821429D01*
X107178571Y5392858D02*
X107035714Y5321429D01*
X106750000Y5321429D01*
X106607142Y5392858D01*
X106535714Y5464286D01*
X106464285Y5607143D01*
X106464285Y6035715D01*
X106535714Y6178572D01*
X106607142Y6250000D01*
X106750000Y6321429D01*
X107035714Y6321429D01*
X107178571Y6250000D01*
X107964285Y6821429D02*
X107821428Y6535715D01*
X108535714Y5392858D02*
X108678571Y5321429D01*
X108964285Y5321429D01*
X109107142Y5392858D01*
X109178571Y5535715D01*
X109178571Y5607143D01*
X109107142Y5750000D01*
X108964285Y5821429D01*
X108750000Y5821429D01*
X108607142Y5892858D01*
X108535714Y6035715D01*
X108535714Y6107143D01*
X108607142Y6250000D01*
X108750000Y6321429D01*
X108964285Y6321429D01*
X109107142Y6250000D01*
X111821428Y5464286D02*
X111750000Y5392858D01*
X111535714Y5321429D01*
X111392857Y5321429D01*
X111178571Y5392858D01*
X111035714Y5535715D01*
X110964285Y5678572D01*
X110892857Y5964286D01*
X110892857Y6178572D01*
X110964285Y6464286D01*
X111035714Y6607143D01*
X111178571Y6750000D01*
X111392857Y6821429D01*
X111535714Y6821429D01*
X111750000Y6750000D01*
X111821428Y6678572D01*
X112678571Y5321429D02*
X112535714Y5392858D01*
X112464285Y5535715D01*
X112464285Y6821429D01*
X113464285Y5321429D02*
X113321428Y5392858D01*
X113250000Y5464286D01*
X113178571Y5607143D01*
X113178571Y6035715D01*
X113250000Y6178572D01*
X113321428Y6250000D01*
X113464285Y6321429D01*
X113678571Y6321429D01*
X113821428Y6250000D01*
X113892857Y6178572D01*
X113964285Y6035715D01*
X113964285Y5607143D01*
X113892857Y5464286D01*
X113821428Y5392858D01*
X113678571Y5321429D01*
X113464285Y5321429D01*
X115250000Y5392858D02*
X115107142Y5321429D01*
X114821428Y5321429D01*
X114678571Y5392858D01*
X114607142Y5464286D01*
X114535714Y5607143D01*
X114535714Y6035715D01*
X114607142Y6178572D01*
X114678571Y6250000D01*
X114821428Y6321429D01*
X115107142Y6321429D01*
X115250000Y6250000D01*
X115892857Y5321429D02*
X115892857Y6821429D01*
X116035714Y5892858D02*
X116464285Y5321429D01*
X116464285Y6321429D02*
X115892857Y5750000D01*
D11*
%TO.C,H4*%
X134238095Y8747620D02*
X134238095Y9747620D01*
X134238095Y9271429D02*
X134809523Y9271429D01*
X134809523Y8747620D02*
X134809523Y9747620D01*
X135714285Y9414286D02*
X135714285Y8747620D01*
X135476190Y9795239D02*
X135238095Y9080953D01*
X135857142Y9080953D01*
%TO.C,TP3*%
X10738095Y6545620D02*
X11309523Y6545620D01*
X11023809Y5545620D02*
X11023809Y6545620D01*
X11642857Y5545620D02*
X11642857Y6545620D01*
X12023809Y6545620D01*
X12119047Y6498000D01*
X12166666Y6450381D01*
X12214285Y6355143D01*
X12214285Y6212286D01*
X12166666Y6117048D01*
X12119047Y6069429D01*
X12023809Y6021810D01*
X11642857Y6021810D01*
X12547619Y6545620D02*
X13166666Y6545620D01*
X12833333Y6164667D01*
X12976190Y6164667D01*
X13071428Y6117048D01*
X13119047Y6069429D01*
X13166666Y5974191D01*
X13166666Y5736096D01*
X13119047Y5640858D01*
X13071428Y5593239D01*
X12976190Y5545620D01*
X12690476Y5545620D01*
X12595238Y5593239D01*
X12547619Y5640858D01*
%TO.C,R9*%
X43983333Y2897620D02*
X43650000Y3373810D01*
X43411904Y2897620D02*
X43411904Y3897620D01*
X43792857Y3897620D01*
X43888095Y3850000D01*
X43935714Y3802381D01*
X43983333Y3707143D01*
X43983333Y3564286D01*
X43935714Y3469048D01*
X43888095Y3421429D01*
X43792857Y3373810D01*
X43411904Y3373810D01*
X44459523Y2897620D02*
X44650000Y2897620D01*
X44745238Y2945239D01*
X44792857Y2992858D01*
X44888095Y3135715D01*
X44935714Y3326191D01*
X44935714Y3707143D01*
X44888095Y3802381D01*
X44840476Y3850000D01*
X44745238Y3897620D01*
X44554761Y3897620D01*
X44459523Y3850000D01*
X44411904Y3802381D01*
X44364285Y3707143D01*
X44364285Y3469048D01*
X44411904Y3373810D01*
X44459523Y3326191D01*
X44554761Y3278572D01*
X44745238Y3278572D01*
X44840476Y3326191D01*
X44888095Y3373810D01*
X44935714Y3469048D01*
%TO.C,C8*%
X47133333Y25292858D02*
X47085714Y25245239D01*
X46942857Y25197620D01*
X46847619Y25197620D01*
X46704761Y25245239D01*
X46609523Y25340477D01*
X46561904Y25435715D01*
X46514285Y25626191D01*
X46514285Y25769048D01*
X46561904Y25959524D01*
X46609523Y26054762D01*
X46704761Y26150000D01*
X46847619Y26197620D01*
X46942857Y26197620D01*
X47085714Y26150000D01*
X47133333Y26102381D01*
X47704761Y25769048D02*
X47609523Y25816667D01*
X47561904Y25864286D01*
X47514285Y25959524D01*
X47514285Y26007143D01*
X47561904Y26102381D01*
X47609523Y26150000D01*
X47704761Y26197620D01*
X47895238Y26197620D01*
X47990476Y26150000D01*
X48038095Y26102381D01*
X48085714Y26007143D01*
X48085714Y25959524D01*
X48038095Y25864286D01*
X47990476Y25816667D01*
X47895238Y25769048D01*
X47704761Y25769048D01*
X47609523Y25721429D01*
X47561904Y25673810D01*
X47514285Y25578572D01*
X47514285Y25388096D01*
X47561904Y25292858D01*
X47609523Y25245239D01*
X47704761Y25197620D01*
X47895238Y25197620D01*
X47990476Y25245239D01*
X48038095Y25292858D01*
X48085714Y25388096D01*
X48085714Y25578572D01*
X48038095Y25673810D01*
X47990476Y25721429D01*
X47895238Y25769048D01*
%TO.C,C9*%
X47333333Y32292858D02*
X47285714Y32245239D01*
X47142857Y32197620D01*
X47047619Y32197620D01*
X46904761Y32245239D01*
X46809523Y32340477D01*
X46761904Y32435715D01*
X46714285Y32626191D01*
X46714285Y32769048D01*
X46761904Y32959524D01*
X46809523Y33054762D01*
X46904761Y33150000D01*
X47047619Y33197620D01*
X47142857Y33197620D01*
X47285714Y33150000D01*
X47333333Y33102381D01*
X47809523Y32197620D02*
X48000000Y32197620D01*
X48095238Y32245239D01*
X48142857Y32292858D01*
X48238095Y32435715D01*
X48285714Y32626191D01*
X48285714Y33007143D01*
X48238095Y33102381D01*
X48190476Y33150000D01*
X48095238Y33197620D01*
X47904761Y33197620D01*
X47809523Y33150000D01*
X47761904Y33102381D01*
X47714285Y33007143D01*
X47714285Y32769048D01*
X47761904Y32673810D01*
X47809523Y32626191D01*
X47904761Y32578572D01*
X48095238Y32578572D01*
X48190476Y32626191D01*
X48238095Y32673810D01*
X48285714Y32769048D01*
%TO.C,C1*%
X114833333Y72992858D02*
X114785714Y72945239D01*
X114642857Y72897620D01*
X114547619Y72897620D01*
X114404761Y72945239D01*
X114309523Y73040477D01*
X114261904Y73135715D01*
X114214285Y73326191D01*
X114214285Y73469048D01*
X114261904Y73659524D01*
X114309523Y73754762D01*
X114404761Y73850000D01*
X114547619Y73897620D01*
X114642857Y73897620D01*
X114785714Y73850000D01*
X114833333Y73802381D01*
X115785714Y72897620D02*
X115214285Y72897620D01*
X115500000Y72897620D02*
X115500000Y73897620D01*
X115404761Y73754762D01*
X115309523Y73659524D01*
X115214285Y73611905D01*
%TO.C,R12*%
X89357142Y2897620D02*
X89023809Y3373810D01*
X88785714Y2897620D02*
X88785714Y3897620D01*
X89166666Y3897620D01*
X89261904Y3850000D01*
X89309523Y3802381D01*
X89357142Y3707143D01*
X89357142Y3564286D01*
X89309523Y3469048D01*
X89261904Y3421429D01*
X89166666Y3373810D01*
X88785714Y3373810D01*
X90309523Y2897620D02*
X89738095Y2897620D01*
X90023809Y2897620D02*
X90023809Y3897620D01*
X89928571Y3754762D01*
X89833333Y3659524D01*
X89738095Y3611905D01*
X90690476Y3802381D02*
X90738095Y3850000D01*
X90833333Y3897620D01*
X91071428Y3897620D01*
X91166666Y3850000D01*
X91214285Y3802381D01*
X91261904Y3707143D01*
X91261904Y3611905D01*
X91214285Y3469048D01*
X90642857Y2897620D01*
X91261904Y2897620D01*
%TO.C,TP11*%
X106261904Y87545620D02*
X106833333Y87545620D01*
X106547619Y86545620D02*
X106547619Y87545620D01*
X107166666Y86545620D02*
X107166666Y87545620D01*
X107547619Y87545620D01*
X107642857Y87498000D01*
X107690476Y87450381D01*
X107738095Y87355143D01*
X107738095Y87212286D01*
X107690476Y87117048D01*
X107642857Y87069429D01*
X107547619Y87021810D01*
X107166666Y87021810D01*
X108690476Y86545620D02*
X108119047Y86545620D01*
X108404761Y86545620D02*
X108404761Y87545620D01*
X108309523Y87402762D01*
X108214285Y87307524D01*
X108119047Y87259905D01*
X109642857Y86545620D02*
X109071428Y86545620D01*
X109357142Y86545620D02*
X109357142Y87545620D01*
X109261904Y87402762D01*
X109166666Y87307524D01*
X109071428Y87259905D01*
%TO.C,BZ1*%
X21619047Y49741429D02*
X21761904Y49693810D01*
X21809523Y49646191D01*
X21857142Y49550953D01*
X21857142Y49408096D01*
X21809523Y49312858D01*
X21761904Y49265239D01*
X21666666Y49217620D01*
X21285714Y49217620D01*
X21285714Y50217620D01*
X21619047Y50217620D01*
X21714285Y50170000D01*
X21761904Y50122381D01*
X21809523Y50027143D01*
X21809523Y49931905D01*
X21761904Y49836667D01*
X21714285Y49789048D01*
X21619047Y49741429D01*
X21285714Y49741429D01*
X22190476Y50217620D02*
X22857142Y50217620D01*
X22190476Y49217620D01*
X22857142Y49217620D01*
X23761904Y49217620D02*
X23190476Y49217620D01*
X23476190Y49217620D02*
X23476190Y50217620D01*
X23380952Y50074762D01*
X23285714Y49979524D01*
X23190476Y49931905D01*
%TO.C,TP8*%
X70738095Y59547620D02*
X71309523Y59547620D01*
X71023809Y58547620D02*
X71023809Y59547620D01*
X71642857Y58547620D02*
X71642857Y59547620D01*
X72023809Y59547620D01*
X72119047Y59500000D01*
X72166666Y59452381D01*
X72214285Y59357143D01*
X72214285Y59214286D01*
X72166666Y59119048D01*
X72119047Y59071429D01*
X72023809Y59023810D01*
X71642857Y59023810D01*
X72785714Y59119048D02*
X72690476Y59166667D01*
X72642857Y59214286D01*
X72595238Y59309524D01*
X72595238Y59357143D01*
X72642857Y59452381D01*
X72690476Y59500000D01*
X72785714Y59547620D01*
X72976190Y59547620D01*
X73071428Y59500000D01*
X73119047Y59452381D01*
X73166666Y59357143D01*
X73166666Y59309524D01*
X73119047Y59214286D01*
X73071428Y59166667D01*
X72976190Y59119048D01*
X72785714Y59119048D01*
X72690476Y59071429D01*
X72642857Y59023810D01*
X72595238Y58928572D01*
X72595238Y58738096D01*
X72642857Y58642858D01*
X72690476Y58595239D01*
X72785714Y58547620D01*
X72976190Y58547620D01*
X73071428Y58595239D01*
X73119047Y58642858D01*
X73166666Y58738096D01*
X73166666Y58928572D01*
X73119047Y59023810D01*
X73071428Y59071429D01*
X72976190Y59119048D01*
%TO.C,U4*%
X49238095Y84047620D02*
X49238095Y83238096D01*
X49285714Y83142858D01*
X49333333Y83095239D01*
X49428571Y83047620D01*
X49619047Y83047620D01*
X49714285Y83095239D01*
X49761904Y83142858D01*
X49809523Y83238096D01*
X49809523Y84047620D01*
X50714285Y83714286D02*
X50714285Y83047620D01*
X50476190Y84095239D02*
X50238095Y83380953D01*
X50857142Y83380953D01*
%TO.C,U5*%
X8322380Y61748096D02*
X9131904Y61748096D01*
X9227142Y61795715D01*
X9274761Y61843334D01*
X9322380Y61938572D01*
X9322380Y62129048D01*
X9274761Y62224286D01*
X9227142Y62271905D01*
X9131904Y62319524D01*
X8322380Y62319524D01*
X8322380Y63271905D02*
X8322380Y62795715D01*
X8798571Y62748096D01*
X8750952Y62795715D01*
X8703333Y62890953D01*
X8703333Y63129048D01*
X8750952Y63224286D01*
X8798571Y63271905D01*
X8893809Y63319524D01*
X9131904Y63319524D01*
X9227142Y63271905D01*
X9274761Y63224286D01*
X9322380Y63129048D01*
X9322380Y62890953D01*
X9274761Y62795715D01*
X9227142Y62748096D01*
%TO.C,TP7*%
X36738095Y33547620D02*
X37309523Y33547620D01*
X37023809Y32547620D02*
X37023809Y33547620D01*
X37642857Y32547620D02*
X37642857Y33547620D01*
X38023809Y33547620D01*
X38119047Y33500000D01*
X38166666Y33452381D01*
X38214285Y33357143D01*
X38214285Y33214286D01*
X38166666Y33119048D01*
X38119047Y33071429D01*
X38023809Y33023810D01*
X37642857Y33023810D01*
X38547619Y33547620D02*
X39214285Y33547620D01*
X38785714Y32547620D01*
%TO.C,R8*%
X42833333Y61197620D02*
X42500000Y61673810D01*
X42261904Y61197620D02*
X42261904Y62197620D01*
X42642857Y62197620D01*
X42738095Y62150000D01*
X42785714Y62102381D01*
X42833333Y62007143D01*
X42833333Y61864286D01*
X42785714Y61769048D01*
X42738095Y61721429D01*
X42642857Y61673810D01*
X42261904Y61673810D01*
X43404761Y61769048D02*
X43309523Y61816667D01*
X43261904Y61864286D01*
X43214285Y61959524D01*
X43214285Y62007143D01*
X43261904Y62102381D01*
X43309523Y62150000D01*
X43404761Y62197620D01*
X43595238Y62197620D01*
X43690476Y62150000D01*
X43738095Y62102381D01*
X43785714Y62007143D01*
X43785714Y61959524D01*
X43738095Y61864286D01*
X43690476Y61816667D01*
X43595238Y61769048D01*
X43404761Y61769048D01*
X43309523Y61721429D01*
X43261904Y61673810D01*
X43214285Y61578572D01*
X43214285Y61388096D01*
X43261904Y61292858D01*
X43309523Y61245239D01*
X43404761Y61197620D01*
X43595238Y61197620D01*
X43690476Y61245239D01*
X43738095Y61292858D01*
X43785714Y61388096D01*
X43785714Y61578572D01*
X43738095Y61673810D01*
X43690476Y61721429D01*
X43595238Y61769048D01*
%TO.C,C3*%
X26483333Y80492858D02*
X26435714Y80445239D01*
X26292857Y80397620D01*
X26197619Y80397620D01*
X26054761Y80445239D01*
X25959523Y80540477D01*
X25911904Y80635715D01*
X25864285Y80826191D01*
X25864285Y80969048D01*
X25911904Y81159524D01*
X25959523Y81254762D01*
X26054761Y81350000D01*
X26197619Y81397620D01*
X26292857Y81397620D01*
X26435714Y81350000D01*
X26483333Y81302381D01*
X26816666Y81397620D02*
X27435714Y81397620D01*
X27102380Y81016667D01*
X27245238Y81016667D01*
X27340476Y80969048D01*
X27388095Y80921429D01*
X27435714Y80826191D01*
X27435714Y80588096D01*
X27388095Y80492858D01*
X27340476Y80445239D01*
X27245238Y80397620D01*
X26959523Y80397620D01*
X26864285Y80445239D01*
X26816666Y80492858D01*
%TO.C,R1*%
X117833333Y83547620D02*
X117500000Y84023810D01*
X117261904Y83547620D02*
X117261904Y84547620D01*
X117642857Y84547620D01*
X117738095Y84500000D01*
X117785714Y84452381D01*
X117833333Y84357143D01*
X117833333Y84214286D01*
X117785714Y84119048D01*
X117738095Y84071429D01*
X117642857Y84023810D01*
X117261904Y84023810D01*
X118785714Y83547620D02*
X118214285Y83547620D01*
X118500000Y83547620D02*
X118500000Y84547620D01*
X118404761Y84404762D01*
X118309523Y84309524D01*
X118214285Y84261905D01*
%TO.C,SW2*%
X46166666Y16395239D02*
X46309523Y16347620D01*
X46547619Y16347620D01*
X46642857Y16395239D01*
X46690476Y16442858D01*
X46738095Y16538096D01*
X46738095Y16633334D01*
X46690476Y16728572D01*
X46642857Y16776191D01*
X46547619Y16823810D01*
X46357142Y16871429D01*
X46261904Y16919048D01*
X46214285Y16966667D01*
X46166666Y17061905D01*
X46166666Y17157143D01*
X46214285Y17252381D01*
X46261904Y17300000D01*
X46357142Y17347620D01*
X46595238Y17347620D01*
X46738095Y17300000D01*
X47071428Y17347620D02*
X47309523Y16347620D01*
X47500000Y17061905D01*
X47690476Y16347620D01*
X47928571Y17347620D01*
X48261904Y17252381D02*
X48309523Y17300000D01*
X48404761Y17347620D01*
X48642857Y17347620D01*
X48738095Y17300000D01*
X48785714Y17252381D01*
X48833333Y17157143D01*
X48833333Y17061905D01*
X48785714Y16919048D01*
X48214285Y16347620D01*
X48833333Y16347620D01*
%TO.C,TP1*%
X133738095Y65545620D02*
X134309523Y65545620D01*
X134023809Y64545620D02*
X134023809Y65545620D01*
X134642857Y64545620D02*
X134642857Y65545620D01*
X135023809Y65545620D01*
X135119047Y65498000D01*
X135166666Y65450381D01*
X135214285Y65355143D01*
X135214285Y65212286D01*
X135166666Y65117048D01*
X135119047Y65069429D01*
X135023809Y65021810D01*
X134642857Y65021810D01*
X136166666Y64545620D02*
X135595238Y64545620D01*
X135880952Y64545620D02*
X135880952Y65545620D01*
X135785714Y65402762D01*
X135690476Y65307524D01*
X135595238Y65259905D01*
%TO.C,TP6*%
X57738095Y60547620D02*
X58309523Y60547620D01*
X58023809Y59547620D02*
X58023809Y60547620D01*
X58642857Y59547620D02*
X58642857Y60547620D01*
X59023809Y60547620D01*
X59119047Y60500000D01*
X59166666Y60452381D01*
X59214285Y60357143D01*
X59214285Y60214286D01*
X59166666Y60119048D01*
X59119047Y60071429D01*
X59023809Y60023810D01*
X58642857Y60023810D01*
X60071428Y60547620D02*
X59880952Y60547620D01*
X59785714Y60500000D01*
X59738095Y60452381D01*
X59642857Y60309524D01*
X59595238Y60119048D01*
X59595238Y59738096D01*
X59642857Y59642858D01*
X59690476Y59595239D01*
X59785714Y59547620D01*
X59976190Y59547620D01*
X60071428Y59595239D01*
X60119047Y59642858D01*
X60166666Y59738096D01*
X60166666Y59976191D01*
X60119047Y60071429D01*
X60071428Y60119048D01*
X59976190Y60166667D01*
X59785714Y60166667D01*
X59690476Y60119048D01*
X59642857Y60071429D01*
X59595238Y59976191D01*
%TO.C,TP9*%
X42738095Y67545620D02*
X43309523Y67545620D01*
X43023809Y66545620D02*
X43023809Y67545620D01*
X43642857Y66545620D02*
X43642857Y67545620D01*
X44023809Y67545620D01*
X44119047Y67498000D01*
X44166666Y67450381D01*
X44214285Y67355143D01*
X44214285Y67212286D01*
X44166666Y67117048D01*
X44119047Y67069429D01*
X44023809Y67021810D01*
X43642857Y67021810D01*
X44690476Y66545620D02*
X44880952Y66545620D01*
X44976190Y66593239D01*
X45023809Y66640858D01*
X45119047Y66783715D01*
X45166666Y66974191D01*
X45166666Y67355143D01*
X45119047Y67450381D01*
X45071428Y67498000D01*
X44976190Y67545620D01*
X44785714Y67545620D01*
X44690476Y67498000D01*
X44642857Y67450381D01*
X44595238Y67355143D01*
X44595238Y67117048D01*
X44642857Y67021810D01*
X44690476Y66974191D01*
X44785714Y66926572D01*
X44976190Y66926572D01*
X45071428Y66974191D01*
X45119047Y67021810D01*
X45166666Y67117048D01*
%TO.C,SW4*%
X76166666Y16395239D02*
X76309523Y16347620D01*
X76547619Y16347620D01*
X76642857Y16395239D01*
X76690476Y16442858D01*
X76738095Y16538096D01*
X76738095Y16633334D01*
X76690476Y16728572D01*
X76642857Y16776191D01*
X76547619Y16823810D01*
X76357142Y16871429D01*
X76261904Y16919048D01*
X76214285Y16966667D01*
X76166666Y17061905D01*
X76166666Y17157143D01*
X76214285Y17252381D01*
X76261904Y17300000D01*
X76357142Y17347620D01*
X76595238Y17347620D01*
X76738095Y17300000D01*
X77071428Y17347620D02*
X77309523Y16347620D01*
X77500000Y17061905D01*
X77690476Y16347620D01*
X77928571Y17347620D01*
X78738095Y17014286D02*
X78738095Y16347620D01*
X78500000Y17395239D02*
X78261904Y16680953D01*
X78880952Y16680953D01*
%TO.C,C4*%
X117007142Y49833334D02*
X117054761Y49785715D01*
X117102380Y49642858D01*
X117102380Y49547620D01*
X117054761Y49404762D01*
X116959523Y49309524D01*
X116864285Y49261905D01*
X116673809Y49214286D01*
X116530952Y49214286D01*
X116340476Y49261905D01*
X116245238Y49309524D01*
X116150000Y49404762D01*
X116102380Y49547620D01*
X116102380Y49642858D01*
X116150000Y49785715D01*
X116197619Y49833334D01*
X116435714Y50690477D02*
X117102380Y50690477D01*
X116054761Y50452381D02*
X116769047Y50214286D01*
X116769047Y50833334D01*
%TO.C,U1*%
X93122380Y66748096D02*
X93931904Y66748096D01*
X94027142Y66795715D01*
X94074761Y66843334D01*
X94122380Y66938572D01*
X94122380Y67129048D01*
X94074761Y67224286D01*
X94027142Y67271905D01*
X93931904Y67319524D01*
X93122380Y67319524D01*
X94122380Y68319524D02*
X94122380Y67748096D01*
X94122380Y68033810D02*
X93122380Y68033810D01*
X93265238Y67938572D01*
X93360476Y67843334D01*
X93408095Y67748096D01*
%TO.C,H2*%
X134238095Y88747620D02*
X134238095Y89747620D01*
X134238095Y89271429D02*
X134809523Y89271429D01*
X134809523Y88747620D02*
X134809523Y89747620D01*
X135238095Y89652381D02*
X135285714Y89700000D01*
X135380952Y89747620D01*
X135619047Y89747620D01*
X135714285Y89700000D01*
X135761904Y89652381D01*
X135809523Y89557143D01*
X135809523Y89461905D01*
X135761904Y89319048D01*
X135190476Y88747620D01*
X135809523Y88747620D01*
%TO.C,H3*%
X4238095Y8747620D02*
X4238095Y9747620D01*
X4238095Y9271429D02*
X4809523Y9271429D01*
X4809523Y8747620D02*
X4809523Y9747620D01*
X5190476Y9747620D02*
X5809523Y9747620D01*
X5476190Y9366667D01*
X5619047Y9366667D01*
X5714285Y9319048D01*
X5761904Y9271429D01*
X5809523Y9176191D01*
X5809523Y8938096D01*
X5761904Y8842858D01*
X5714285Y8795239D01*
X5619047Y8747620D01*
X5333333Y8747620D01*
X5238095Y8795239D01*
X5190476Y8842858D01*
%TO.C,D2*%
X41411904Y56197620D02*
X41411904Y57197620D01*
X41650000Y57197620D01*
X41792857Y57150000D01*
X41888095Y57054762D01*
X41935714Y56959524D01*
X41983333Y56769048D01*
X41983333Y56626191D01*
X41935714Y56435715D01*
X41888095Y56340477D01*
X41792857Y56245239D01*
X41650000Y56197620D01*
X41411904Y56197620D01*
X42364285Y57102381D02*
X42411904Y57150000D01*
X42507142Y57197620D01*
X42745238Y57197620D01*
X42840476Y57150000D01*
X42888095Y57102381D01*
X42935714Y57007143D01*
X42935714Y56911905D01*
X42888095Y56769048D01*
X42316666Y56197620D01*
X42935714Y56197620D01*
%TO.C,SW1*%
X98666666Y83895239D02*
X98809523Y83847620D01*
X99047619Y83847620D01*
X99142857Y83895239D01*
X99190476Y83942858D01*
X99238095Y84038096D01*
X99238095Y84133334D01*
X99190476Y84228572D01*
X99142857Y84276191D01*
X99047619Y84323810D01*
X98857142Y84371429D01*
X98761904Y84419048D01*
X98714285Y84466667D01*
X98666666Y84561905D01*
X98666666Y84657143D01*
X98714285Y84752381D01*
X98761904Y84800000D01*
X98857142Y84847620D01*
X99095238Y84847620D01*
X99238095Y84800000D01*
X99571428Y84847620D02*
X99809523Y83847620D01*
X100000000Y84561905D01*
X100190476Y83847620D01*
X100428571Y84847620D01*
X101333333Y83847620D02*
X100761904Y83847620D01*
X101047619Y83847620D02*
X101047619Y84847620D01*
X100952380Y84704762D01*
X100857142Y84609524D01*
X100761904Y84561905D01*
%TO.C,R13*%
X35102380Y49357143D02*
X34626190Y49023810D01*
X35102380Y48785715D02*
X34102380Y48785715D01*
X34102380Y49166667D01*
X34150000Y49261905D01*
X34197619Y49309524D01*
X34292857Y49357143D01*
X34435714Y49357143D01*
X34530952Y49309524D01*
X34578571Y49261905D01*
X34626190Y49166667D01*
X34626190Y48785715D01*
X35102380Y50309524D02*
X35102380Y49738096D01*
X35102380Y50023810D02*
X34102380Y50023810D01*
X34245238Y49928572D01*
X34340476Y49833334D01*
X34388095Y49738096D01*
X34102380Y50642858D02*
X34102380Y51261905D01*
X34483333Y50928572D01*
X34483333Y51071429D01*
X34530952Y51166667D01*
X34578571Y51214286D01*
X34673809Y51261905D01*
X34911904Y51261905D01*
X35007142Y51214286D01*
X35054761Y51166667D01*
X35102380Y51071429D01*
X35102380Y50785715D01*
X35054761Y50690477D01*
X35007142Y50642858D01*
%TO.C,C6*%
X116207142Y27333334D02*
X116254761Y27285715D01*
X116302380Y27142858D01*
X116302380Y27047620D01*
X116254761Y26904762D01*
X116159523Y26809524D01*
X116064285Y26761905D01*
X115873809Y26714286D01*
X115730952Y26714286D01*
X115540476Y26761905D01*
X115445238Y26809524D01*
X115350000Y26904762D01*
X115302380Y27047620D01*
X115302380Y27142858D01*
X115350000Y27285715D01*
X115397619Y27333334D01*
X115302380Y28190477D02*
X115302380Y28000000D01*
X115350000Y27904762D01*
X115397619Y27857143D01*
X115540476Y27761905D01*
X115730952Y27714286D01*
X116111904Y27714286D01*
X116207142Y27761905D01*
X116254761Y27809524D01*
X116302380Y27904762D01*
X116302380Y28095239D01*
X116254761Y28190477D01*
X116207142Y28238096D01*
X116111904Y28285715D01*
X115873809Y28285715D01*
X115778571Y28238096D01*
X115730952Y28190477D01*
X115683333Y28095239D01*
X115683333Y27904762D01*
X115730952Y27809524D01*
X115778571Y27761905D01*
X115873809Y27714286D01*
%TO.C,H1*%
X4238095Y88747620D02*
X4238095Y89747620D01*
X4238095Y89271429D02*
X4809523Y89271429D01*
X4809523Y88747620D02*
X4809523Y89747620D01*
X5809523Y88747620D02*
X5238095Y88747620D01*
X5523809Y88747620D02*
X5523809Y89747620D01*
X5428571Y89604762D01*
X5333333Y89509524D01*
X5238095Y89461905D01*
%TO.C,R3*%
X32333333Y83697620D02*
X32000000Y84173810D01*
X31761904Y83697620D02*
X31761904Y84697620D01*
X32142857Y84697620D01*
X32238095Y84650000D01*
X32285714Y84602381D01*
X32333333Y84507143D01*
X32333333Y84364286D01*
X32285714Y84269048D01*
X32238095Y84221429D01*
X32142857Y84173810D01*
X31761904Y84173810D01*
X32666666Y84697620D02*
X33285714Y84697620D01*
X32952380Y84316667D01*
X33095238Y84316667D01*
X33190476Y84269048D01*
X33238095Y84221429D01*
X33285714Y84126191D01*
X33285714Y83888096D01*
X33238095Y83792858D01*
X33190476Y83745239D01*
X33095238Y83697620D01*
X32809523Y83697620D01*
X32714285Y83745239D01*
X32666666Y83792858D01*
%TO.C,Y1*%
X119523809Y53973810D02*
X119523809Y53497620D01*
X119190476Y54497620D02*
X119523809Y53973810D01*
X119857142Y54497620D01*
X120714285Y53497620D02*
X120142857Y53497620D01*
X120428571Y53497620D02*
X120428571Y54497620D01*
X120333333Y54354762D01*
X120238095Y54259524D01*
X120142857Y54211905D01*
%TO.C,R7*%
X69833333Y16897620D02*
X69500000Y17373810D01*
X69261904Y16897620D02*
X69261904Y17897620D01*
X69642857Y17897620D01*
X69738095Y17850000D01*
X69785714Y17802381D01*
X69833333Y17707143D01*
X69833333Y17564286D01*
X69785714Y17469048D01*
X69738095Y17421429D01*
X69642857Y17373810D01*
X69261904Y17373810D01*
X70166666Y17897620D02*
X70833333Y17897620D01*
X70404761Y16897620D01*
%TO.C,TP10*%
X116261904Y87545620D02*
X116833333Y87545620D01*
X116547619Y86545620D02*
X116547619Y87545620D01*
X117166666Y86545620D02*
X117166666Y87545620D01*
X117547619Y87545620D01*
X117642857Y87498000D01*
X117690476Y87450381D01*
X117738095Y87355143D01*
X117738095Y87212286D01*
X117690476Y87117048D01*
X117642857Y87069429D01*
X117547619Y87021810D01*
X117166666Y87021810D01*
X118690476Y86545620D02*
X118119047Y86545620D01*
X118404761Y86545620D02*
X118404761Y87545620D01*
X118309523Y87402762D01*
X118214285Y87307524D01*
X118119047Y87259905D01*
X119309523Y87545620D02*
X119404761Y87545620D01*
X119500000Y87498000D01*
X119547619Y87450381D01*
X119595238Y87355143D01*
X119642857Y87164667D01*
X119642857Y86926572D01*
X119595238Y86736096D01*
X119547619Y86640858D01*
X119500000Y86593239D01*
X119404761Y86545620D01*
X119309523Y86545620D01*
X119214285Y86593239D01*
X119166666Y86640858D01*
X119119047Y86736096D01*
X119071428Y86926572D01*
X119071428Y87164667D01*
X119119047Y87355143D01*
X119166666Y87450381D01*
X119214285Y87498000D01*
X119309523Y87545620D01*
%TO.C,SW5*%
X91166666Y16395239D02*
X91309523Y16347620D01*
X91547619Y16347620D01*
X91642857Y16395239D01*
X91690476Y16442858D01*
X91738095Y16538096D01*
X91738095Y16633334D01*
X91690476Y16728572D01*
X91642857Y16776191D01*
X91547619Y16823810D01*
X91357142Y16871429D01*
X91261904Y16919048D01*
X91214285Y16966667D01*
X91166666Y17061905D01*
X91166666Y17157143D01*
X91214285Y17252381D01*
X91261904Y17300000D01*
X91357142Y17347620D01*
X91595238Y17347620D01*
X91738095Y17300000D01*
X92071428Y17347620D02*
X92309523Y16347620D01*
X92500000Y17061905D01*
X92690476Y16347620D01*
X92928571Y17347620D01*
X93785714Y17347620D02*
X93309523Y17347620D01*
X93261904Y16871429D01*
X93309523Y16919048D01*
X93404761Y16966667D01*
X93642857Y16966667D01*
X93738095Y16919048D01*
X93785714Y16871429D01*
X93833333Y16776191D01*
X93833333Y16538096D01*
X93785714Y16442858D01*
X93738095Y16395239D01*
X93642857Y16347620D01*
X93404761Y16347620D01*
X93309523Y16395239D01*
X93261904Y16442858D01*
%TO.C,R4*%
X37333333Y83697620D02*
X37000000Y84173810D01*
X36761904Y83697620D02*
X36761904Y84697620D01*
X37142857Y84697620D01*
X37238095Y84650000D01*
X37285714Y84602381D01*
X37333333Y84507143D01*
X37333333Y84364286D01*
X37285714Y84269048D01*
X37238095Y84221429D01*
X37142857Y84173810D01*
X36761904Y84173810D01*
X38190476Y84364286D02*
X38190476Y83697620D01*
X37952380Y84745239D02*
X37714285Y84030953D01*
X38333333Y84030953D01*
%TO.C,R10*%
X58507142Y2897620D02*
X58173809Y3373810D01*
X57935714Y2897620D02*
X57935714Y3897620D01*
X58316666Y3897620D01*
X58411904Y3850000D01*
X58459523Y3802381D01*
X58507142Y3707143D01*
X58507142Y3564286D01*
X58459523Y3469048D01*
X58411904Y3421429D01*
X58316666Y3373810D01*
X57935714Y3373810D01*
X59459523Y2897620D02*
X58888095Y2897620D01*
X59173809Y2897620D02*
X59173809Y3897620D01*
X59078571Y3754762D01*
X58983333Y3659524D01*
X58888095Y3611905D01*
X60078571Y3897620D02*
X60173809Y3897620D01*
X60269047Y3850000D01*
X60316666Y3802381D01*
X60364285Y3707143D01*
X60411904Y3516667D01*
X60411904Y3278572D01*
X60364285Y3088096D01*
X60316666Y2992858D01*
X60269047Y2945239D01*
X60173809Y2897620D01*
X60078571Y2897620D01*
X59983333Y2945239D01*
X59935714Y2992858D01*
X59888095Y3088096D01*
X59840476Y3278572D01*
X59840476Y3516667D01*
X59888095Y3707143D01*
X59935714Y3802381D01*
X59983333Y3850000D01*
X60078571Y3897620D01*
%TO.C,C7*%
X131207142Y27333334D02*
X131254761Y27285715D01*
X131302380Y27142858D01*
X131302380Y27047620D01*
X131254761Y26904762D01*
X131159523Y26809524D01*
X131064285Y26761905D01*
X130873809Y26714286D01*
X130730952Y26714286D01*
X130540476Y26761905D01*
X130445238Y26809524D01*
X130350000Y26904762D01*
X130302380Y27047620D01*
X130302380Y27142858D01*
X130350000Y27285715D01*
X130397619Y27333334D01*
X130302380Y27666667D02*
X130302380Y28333334D01*
X131302380Y27904762D01*
%TO.C,U3*%
X85757380Y26228096D02*
X86566904Y26228096D01*
X86662142Y26275715D01*
X86709761Y26323334D01*
X86757380Y26418572D01*
X86757380Y26609048D01*
X86709761Y26704286D01*
X86662142Y26751905D01*
X86566904Y26799524D01*
X85757380Y26799524D01*
X85757380Y27180477D02*
X85757380Y27799524D01*
X86138333Y27466191D01*
X86138333Y27609048D01*
X86185952Y27704286D01*
X86233571Y27751905D01*
X86328809Y27799524D01*
X86566904Y27799524D01*
X86662142Y27751905D01*
X86709761Y27704286D01*
X86757380Y27609048D01*
X86757380Y27323334D01*
X86709761Y27228096D01*
X86662142Y27180477D01*
%TO.C,D1*%
X106761904Y83697620D02*
X106761904Y84697620D01*
X107000000Y84697620D01*
X107142857Y84650000D01*
X107238095Y84554762D01*
X107285714Y84459524D01*
X107333333Y84269048D01*
X107333333Y84126191D01*
X107285714Y83935715D01*
X107238095Y83840477D01*
X107142857Y83745239D01*
X107000000Y83697620D01*
X106761904Y83697620D01*
X108285714Y83697620D02*
X107714285Y83697620D01*
X108000000Y83697620D02*
X108000000Y84697620D01*
X107904761Y84554762D01*
X107809523Y84459524D01*
X107714285Y84411905D01*
%TO.C,R6*%
X19833333Y73697620D02*
X19500000Y74173810D01*
X19261904Y73697620D02*
X19261904Y74697620D01*
X19642857Y74697620D01*
X19738095Y74650000D01*
X19785714Y74602381D01*
X19833333Y74507143D01*
X19833333Y74364286D01*
X19785714Y74269048D01*
X19738095Y74221429D01*
X19642857Y74173810D01*
X19261904Y74173810D01*
X20690476Y74697620D02*
X20500000Y74697620D01*
X20404761Y74650000D01*
X20357142Y74602381D01*
X20261904Y74459524D01*
X20214285Y74269048D01*
X20214285Y73888096D01*
X20261904Y73792858D01*
X20309523Y73745239D01*
X20404761Y73697620D01*
X20595238Y73697620D01*
X20690476Y73745239D01*
X20738095Y73792858D01*
X20785714Y73888096D01*
X20785714Y74126191D01*
X20738095Y74221429D01*
X20690476Y74269048D01*
X20595238Y74316667D01*
X20404761Y74316667D01*
X20309523Y74269048D01*
X20261904Y74221429D01*
X20214285Y74126191D01*
%TO.C,R11*%
X74357142Y2897620D02*
X74023809Y3373810D01*
X73785714Y2897620D02*
X73785714Y3897620D01*
X74166666Y3897620D01*
X74261904Y3850000D01*
X74309523Y3802381D01*
X74357142Y3707143D01*
X74357142Y3564286D01*
X74309523Y3469048D01*
X74261904Y3421429D01*
X74166666Y3373810D01*
X73785714Y3373810D01*
X75309523Y2897620D02*
X74738095Y2897620D01*
X75023809Y2897620D02*
X75023809Y3897620D01*
X74928571Y3754762D01*
X74833333Y3659524D01*
X74738095Y3611905D01*
X76261904Y2897620D02*
X75690476Y2897620D01*
X75976190Y2897620D02*
X75976190Y3897620D01*
X75880952Y3754762D01*
X75785714Y3659524D01*
X75690476Y3611905D01*
%TO.C,DS1*%
X44427380Y34710596D02*
X43427380Y34710596D01*
X43427380Y34948691D01*
X43475000Y35091548D01*
X43570238Y35186786D01*
X43665476Y35234405D01*
X43855952Y35282024D01*
X43998809Y35282024D01*
X44189285Y35234405D01*
X44284523Y35186786D01*
X44379761Y35091548D01*
X44427380Y34948691D01*
X44427380Y34710596D01*
X44379761Y35662977D02*
X44427380Y35805834D01*
X44427380Y36043929D01*
X44379761Y36139167D01*
X44332142Y36186786D01*
X44236904Y36234405D01*
X44141666Y36234405D01*
X44046428Y36186786D01*
X43998809Y36139167D01*
X43951190Y36043929D01*
X43903571Y35853453D01*
X43855952Y35758215D01*
X43808333Y35710596D01*
X43713095Y35662977D01*
X43617857Y35662977D01*
X43522619Y35710596D01*
X43475000Y35758215D01*
X43427380Y35853453D01*
X43427380Y36091548D01*
X43475000Y36234405D01*
X44427380Y37186786D02*
X44427380Y36615358D01*
X44427380Y36901072D02*
X43427380Y36901072D01*
X43570238Y36805834D01*
X43665476Y36710596D01*
X43713095Y36615358D01*
%TO.C,R2*%
X113833333Y79547620D02*
X113500000Y80023810D01*
X113261904Y79547620D02*
X113261904Y80547620D01*
X113642857Y80547620D01*
X113738095Y80500000D01*
X113785714Y80452381D01*
X113833333Y80357143D01*
X113833333Y80214286D01*
X113785714Y80119048D01*
X113738095Y80071429D01*
X113642857Y80023810D01*
X113261904Y80023810D01*
X114214285Y80452381D02*
X114261904Y80500000D01*
X114357142Y80547620D01*
X114595238Y80547620D01*
X114690476Y80500000D01*
X114738095Y80452381D01*
X114785714Y80357143D01*
X114785714Y80261905D01*
X114738095Y80119048D01*
X114166666Y79547620D01*
X114785714Y79547620D01*
%TO.C,Q1*%
X33904761Y38952381D02*
X33809523Y39000000D01*
X33714285Y39095239D01*
X33571428Y39238096D01*
X33476190Y39285715D01*
X33380952Y39285715D01*
X33428571Y39047620D02*
X33333333Y39095239D01*
X33238095Y39190477D01*
X33190476Y39380953D01*
X33190476Y39714286D01*
X33238095Y39904762D01*
X33333333Y40000000D01*
X33428571Y40047620D01*
X33619047Y40047620D01*
X33714285Y40000000D01*
X33809523Y39904762D01*
X33857142Y39714286D01*
X33857142Y39380953D01*
X33809523Y39190477D01*
X33714285Y39095239D01*
X33619047Y39047620D01*
X33428571Y39047620D01*
X34809523Y39047620D02*
X34238095Y39047620D01*
X34523809Y39047620D02*
X34523809Y40047620D01*
X34428571Y39904762D01*
X34333333Y39809524D01*
X34238095Y39761905D01*
%TO.C,TP4*%
X132738095Y79545620D02*
X133309523Y79545620D01*
X133023809Y78545620D02*
X133023809Y79545620D01*
X133642857Y78545620D02*
X133642857Y79545620D01*
X134023809Y79545620D01*
X134119047Y79498000D01*
X134166666Y79450381D01*
X134214285Y79355143D01*
X134214285Y79212286D01*
X134166666Y79117048D01*
X134119047Y79069429D01*
X134023809Y79021810D01*
X133642857Y79021810D01*
X135071428Y79212286D02*
X135071428Y78545620D01*
X134833333Y79593239D02*
X134595238Y78878953D01*
X135214285Y78878953D01*
%TO.C,Y2*%
X12023809Y54473810D02*
X12023809Y53997620D01*
X11690476Y54997620D02*
X12023809Y54473810D01*
X12357142Y54997620D01*
X12642857Y54902381D02*
X12690476Y54950000D01*
X12785714Y54997620D01*
X13023809Y54997620D01*
X13119047Y54950000D01*
X13166666Y54902381D01*
X13214285Y54807143D01*
X13214285Y54711905D01*
X13166666Y54569048D01*
X12595238Y53997620D01*
X13214285Y53997620D01*
%TO.C,TP2*%
X133738095Y73545620D02*
X134309523Y73545620D01*
X134023809Y72545620D02*
X134023809Y73545620D01*
X134642857Y72545620D02*
X134642857Y73545620D01*
X135023809Y73545620D01*
X135119047Y73498000D01*
X135166666Y73450381D01*
X135214285Y73355143D01*
X135214285Y73212286D01*
X135166666Y73117048D01*
X135119047Y73069429D01*
X135023809Y73021810D01*
X134642857Y73021810D01*
X135595238Y73450381D02*
X135642857Y73498000D01*
X135738095Y73545620D01*
X135976190Y73545620D01*
X136071428Y73498000D01*
X136119047Y73450381D01*
X136166666Y73355143D01*
X136166666Y73259905D01*
X136119047Y73117048D01*
X135547619Y72545620D01*
X136166666Y72545620D01*
%TO.C,J3*%
X125936666Y85417620D02*
X125936666Y84703334D01*
X125889047Y84560477D01*
X125793809Y84465239D01*
X125650952Y84417620D01*
X125555714Y84417620D01*
X126317619Y85417620D02*
X126936666Y85417620D01*
X126603333Y85036667D01*
X126746190Y85036667D01*
X126841428Y84989048D01*
X126889047Y84941429D01*
X126936666Y84846191D01*
X126936666Y84608096D01*
X126889047Y84512858D01*
X126841428Y84465239D01*
X126746190Y84417620D01*
X126460476Y84417620D01*
X126365238Y84465239D01*
X126317619Y84512858D01*
%TO.C,U2*%
X119527380Y28263096D02*
X120336904Y28263096D01*
X120432142Y28310715D01*
X120479761Y28358334D01*
X120527380Y28453572D01*
X120527380Y28644048D01*
X120479761Y28739286D01*
X120432142Y28786905D01*
X120336904Y28834524D01*
X119527380Y28834524D01*
X119622619Y29263096D02*
X119575000Y29310715D01*
X119527380Y29405953D01*
X119527380Y29644048D01*
X119575000Y29739286D01*
X119622619Y29786905D01*
X119717857Y29834524D01*
X119813095Y29834524D01*
X119955952Y29786905D01*
X120527380Y29215477D01*
X120527380Y29834524D01*
%TO.C,C2*%
X109833333Y72992858D02*
X109785714Y72945239D01*
X109642857Y72897620D01*
X109547619Y72897620D01*
X109404761Y72945239D01*
X109309523Y73040477D01*
X109261904Y73135715D01*
X109214285Y73326191D01*
X109214285Y73469048D01*
X109261904Y73659524D01*
X109309523Y73754762D01*
X109404761Y73850000D01*
X109547619Y73897620D01*
X109642857Y73897620D01*
X109785714Y73850000D01*
X109833333Y73802381D01*
X110214285Y73802381D02*
X110261904Y73850000D01*
X110357142Y73897620D01*
X110595238Y73897620D01*
X110690476Y73850000D01*
X110738095Y73802381D01*
X110785714Y73707143D01*
X110785714Y73611905D01*
X110738095Y73469048D01*
X110166666Y72897620D01*
X110785714Y72897620D01*
%TO.C,R14*%
X42102380Y41357143D02*
X41626190Y41023810D01*
X42102380Y40785715D02*
X41102380Y40785715D01*
X41102380Y41166667D01*
X41150000Y41261905D01*
X41197619Y41309524D01*
X41292857Y41357143D01*
X41435714Y41357143D01*
X41530952Y41309524D01*
X41578571Y41261905D01*
X41626190Y41166667D01*
X41626190Y40785715D01*
X42102380Y42309524D02*
X42102380Y41738096D01*
X42102380Y42023810D02*
X41102380Y42023810D01*
X41245238Y41928572D01*
X41340476Y41833334D01*
X41388095Y41738096D01*
X41435714Y43166667D02*
X42102380Y43166667D01*
X41054761Y42928572D02*
X41769047Y42690477D01*
X41769047Y43309524D01*
%TO.C,SW3*%
X61166666Y16395239D02*
X61309523Y16347620D01*
X61547619Y16347620D01*
X61642857Y16395239D01*
X61690476Y16442858D01*
X61738095Y16538096D01*
X61738095Y16633334D01*
X61690476Y16728572D01*
X61642857Y16776191D01*
X61547619Y16823810D01*
X61357142Y16871429D01*
X61261904Y16919048D01*
X61214285Y16966667D01*
X61166666Y17061905D01*
X61166666Y17157143D01*
X61214285Y17252381D01*
X61261904Y17300000D01*
X61357142Y17347620D01*
X61595238Y17347620D01*
X61738095Y17300000D01*
X62071428Y17347620D02*
X62309523Y16347620D01*
X62500000Y17061905D01*
X62690476Y16347620D01*
X62928571Y17347620D01*
X63214285Y17347620D02*
X63833333Y17347620D01*
X63500000Y16966667D01*
X63642857Y16966667D01*
X63738095Y16919048D01*
X63785714Y16871429D01*
X63833333Y16776191D01*
X63833333Y16538096D01*
X63785714Y16442858D01*
X63738095Y16395239D01*
X63642857Y16347620D01*
X63357142Y16347620D01*
X63261904Y16395239D01*
X63214285Y16442858D01*
%TO.C,C5*%
X127007142Y49833334D02*
X127054761Y49785715D01*
X127102380Y49642858D01*
X127102380Y49547620D01*
X127054761Y49404762D01*
X126959523Y49309524D01*
X126864285Y49261905D01*
X126673809Y49214286D01*
X126530952Y49214286D01*
X126340476Y49261905D01*
X126245238Y49309524D01*
X126150000Y49404762D01*
X126102380Y49547620D01*
X126102380Y49642858D01*
X126150000Y49785715D01*
X126197619Y49833334D01*
X126102380Y50738096D02*
X126102380Y50261905D01*
X126578571Y50214286D01*
X126530952Y50261905D01*
X126483333Y50357143D01*
X126483333Y50595239D01*
X126530952Y50690477D01*
X126578571Y50738096D01*
X126673809Y50785715D01*
X126911904Y50785715D01*
X127007142Y50738096D01*
X127054761Y50690477D01*
X127102380Y50595239D01*
X127102380Y50357143D01*
X127054761Y50261905D01*
X127007142Y50214286D01*
%TO.C,R5*%
X12333333Y73697620D02*
X12000000Y74173810D01*
X11761904Y73697620D02*
X11761904Y74697620D01*
X12142857Y74697620D01*
X12238095Y74650000D01*
X12285714Y74602381D01*
X12333333Y74507143D01*
X12333333Y74364286D01*
X12285714Y74269048D01*
X12238095Y74221429D01*
X12142857Y74173810D01*
X11761904Y74173810D01*
X13238095Y74697620D02*
X12761904Y74697620D01*
X12714285Y74221429D01*
X12761904Y74269048D01*
X12857142Y74316667D01*
X13095238Y74316667D01*
X13190476Y74269048D01*
X13238095Y74221429D01*
X13285714Y74126191D01*
X13285714Y73888096D01*
X13238095Y73792858D01*
X13190476Y73745239D01*
X13095238Y73697620D01*
X12857142Y73697620D01*
X12761904Y73745239D01*
X12714285Y73792858D01*
%TO.C,TP5*%
X126738095Y6545620D02*
X127309523Y6545620D01*
X127023809Y5545620D02*
X127023809Y6545620D01*
X127642857Y5545620D02*
X127642857Y6545620D01*
X128023809Y6545620D01*
X128119047Y6498000D01*
X128166666Y6450381D01*
X128214285Y6355143D01*
X128214285Y6212286D01*
X128166666Y6117048D01*
X128119047Y6069429D01*
X128023809Y6021810D01*
X127642857Y6021810D01*
X129119047Y6545620D02*
X128642857Y6545620D01*
X128595238Y6069429D01*
X128642857Y6117048D01*
X128738095Y6164667D01*
X128976190Y6164667D01*
X129071428Y6117048D01*
X129119047Y6069429D01*
X129166666Y5974191D01*
X129166666Y5736096D01*
X129119047Y5640858D01*
X129071428Y5593239D01*
X128976190Y5545620D01*
X128738095Y5545620D01*
X128642857Y5593239D01*
X128595238Y5640858D01*
D12*
%TO.C,TP3*%
X13200000Y4000000D02*
G75*
G03*
X13200000Y4000000I-1200000J0D01*
G01*
%TO.C,TP11*%
X112200000Y85000000D02*
G75*
G03*
X112200000Y85000000I-1200000J0D01*
G01*
%TO.C,BZ1*%
X16100000Y44000000D02*
G75*
G03*
X16100000Y41000001I6400000J-1500000D01*
G01*
X28730000Y42500000D02*
G75*
G03*
X28730000Y42500000I-6230000J0D01*
G01*
%TO.C,TP8*%
X70200000Y60000000D02*
G75*
G03*
X70200000Y60000000I-1200000J0D01*
G01*
%TO.C,U4*%
X64930000Y65400000D02*
X75070000Y65400000D01*
X75070000Y65400000D02*
X75070000Y62800000D01*
X75070000Y62800000D02*
X64930000Y62800000D01*
X64930000Y62800000D02*
X64930000Y65400000D01*
X47250000Y82700000D02*
X92750000Y82700000D01*
X92750000Y82700000D02*
X92750000Y62300000D01*
X92750000Y62300000D02*
X47250000Y62300000D01*
X47250000Y62300000D02*
X47250000Y82700000D01*
X91000000Y72500000D02*
G75*
G03*
X91000000Y72500000I-8000000J0D01*
G01*
X65000000Y72500000D02*
G75*
G03*
X65000000Y72500000I-8000000J0D01*
G01*
%TO.C,U5*%
X9870000Y59860000D02*
X20150000Y59860000D01*
X9870000Y65160000D02*
X9870000Y63510000D01*
X9870000Y61510000D02*
X9870000Y59860000D01*
X20150000Y59860000D02*
X20150000Y65160000D01*
X20150000Y65160000D02*
X9870000Y65160000D01*
X9870000Y61510000D02*
G75*
G03*
X9870000Y63510000I0J1000000D01*
G01*
%TO.C,TP7*%
X39200000Y36000000D02*
G75*
G03*
X39200000Y36000000I-1200000J0D01*
G01*
%TO.C,SW2*%
X44400000Y13800000D02*
X44400000Y11200000D01*
X50500000Y9250000D02*
X44500000Y9250000D01*
X50400000Y15750000D02*
X44600000Y15750000D01*
X42400000Y15800000D02*
X43400000Y15800000D01*
X50600000Y13800000D02*
X50600000Y11200000D01*
X42400000Y14800000D02*
X42400000Y15800000D01*
%TO.C,TP1*%
X136200000Y63000000D02*
G75*
G03*
X136200000Y63000000I-1200000J0D01*
G01*
%TO.C,TP6*%
X64200000Y60000000D02*
G75*
G03*
X64200000Y60000000I-1200000J0D01*
G01*
%TO.C,TP9*%
X45200000Y65000000D02*
G75*
G03*
X45200000Y65000000I-1200000J0D01*
G01*
%TO.C,SW4*%
X80600000Y13800000D02*
X80600000Y11200000D01*
X74400000Y13800000D02*
X74400000Y11200000D01*
X72400000Y15800000D02*
X73400000Y15800000D01*
X80500000Y9250000D02*
X74500000Y9250000D01*
X80400000Y15750000D02*
X74600000Y15750000D01*
X72400000Y14800000D02*
X72400000Y15800000D01*
%TO.C,U1*%
X130350000Y70160000D02*
X94670000Y70160000D01*
X130350000Y64860000D02*
X130350000Y70160000D01*
X94670000Y64860000D02*
X130350000Y64860000D01*
X94670000Y66510000D02*
X94670000Y64860000D01*
X94670000Y70160000D02*
X94670000Y68510000D01*
X94670000Y66510000D02*
G75*
G03*
X94670000Y68510000I0J1000000D01*
G01*
%TO.C,D2*%
X43150000Y55960000D02*
X40465000Y55960000D01*
X40465000Y55960000D02*
X40465000Y54040000D01*
X40465000Y54040000D02*
X43150000Y54040000D01*
%TO.C,SW1*%
X96900000Y81300000D02*
X96900000Y78700000D01*
X94900000Y82300000D02*
X94900000Y83300000D01*
X103000000Y76750000D02*
X97000000Y76750000D01*
X94900000Y83300000D02*
X95900000Y83300000D01*
X102900000Y83250000D02*
X97100000Y83250000D01*
X103100000Y81300000D02*
X103100000Y78700000D01*
%TO.C,Y1*%
X114100000Y54950000D02*
X126700000Y54950000D01*
X126700000Y54950000D02*
X126700000Y60050000D01*
X126700000Y60050000D02*
X114100000Y60050000D01*
%TO.C,TP10*%
X116200000Y85000000D02*
G75*
G03*
X116200000Y85000000I-1200000J0D01*
G01*
%TO.C,SW5*%
X95400000Y15750000D02*
X89600000Y15750000D01*
X87400000Y14800000D02*
X87400000Y15800000D01*
X95600000Y13800000D02*
X95600000Y11200000D01*
X87400000Y15800000D02*
X88400000Y15800000D01*
X95500000Y9250000D02*
X89500000Y9250000D01*
X89400000Y13800000D02*
X89400000Y11200000D01*
%TO.C,U3*%
X54705000Y24340000D02*
X85305000Y24340000D01*
X85305000Y24340000D02*
X85305000Y25990000D01*
X85305000Y29640000D02*
X54705000Y29640000D01*
X54705000Y29640000D02*
X54705000Y24340000D01*
X85305000Y27990000D02*
X85305000Y29640000D01*
X85305000Y27990000D02*
G75*
G03*
X85305000Y25990000I0J-1000000D01*
G01*
%TO.C,D1*%
X105815000Y83460000D02*
X105815000Y81540000D01*
X105815000Y81540000D02*
X108500000Y81540000D01*
X108500000Y83460000D02*
X105815000Y83460000D01*
D11*
%TO.C,DS1*%
X95225000Y34375000D02*
X95225000Y53625000D01*
X95225000Y53625000D02*
X44775000Y53625000D01*
X95225000Y34375000D02*
X44775000Y34375000D01*
X44775000Y34375000D02*
X44775000Y53625000D01*
D13*
X62505000Y33775000D02*
G75*
G03*
X62505000Y33775000I-125000J0D01*
G01*
D12*
%TO.C,Q1*%
X33240000Y40420000D02*
X35400000Y40420000D01*
X33240000Y43580000D02*
X33240000Y42650000D01*
X33240000Y43580000D02*
X34700000Y43580000D01*
X33240000Y40420000D02*
X33240000Y41350000D01*
%TO.C,TP4*%
X135200000Y77000000D02*
G75*
G03*
X135200000Y77000000I-1200000J0D01*
G01*
%TO.C,Y2*%
X11950000Y53450000D02*
X13050000Y53450000D01*
X11950000Y51550000D02*
X13050000Y51550000D01*
X10550000Y53400000D02*
X10550000Y51600000D01*
%TO.C,TP2*%
X136200000Y71000000D02*
G75*
G03*
X136200000Y71000000I-1200000J0D01*
G01*
%TO.C,J3*%
X123670000Y82540000D02*
X123670000Y83870000D01*
X123670000Y83870000D02*
X125000000Y83870000D01*
X126270000Y83870000D02*
X128870000Y83870000D01*
X128870000Y83870000D02*
X128870000Y76130000D01*
X126270000Y81270000D02*
X126270000Y83870000D01*
X123670000Y81270000D02*
X126270000Y81270000D01*
X123670000Y81270000D02*
X123670000Y76130000D01*
X123670000Y76130000D02*
X128870000Y76130000D01*
%TO.C,U2*%
X121395000Y26555000D02*
X121395000Y23725000D01*
X121125000Y28055000D02*
X121125000Y26555000D01*
X128025000Y28055000D02*
X128025000Y26555000D01*
X128025000Y26555000D02*
X127755000Y26555000D01*
X127755000Y26555000D02*
X127755000Y25455000D01*
X121125000Y26555000D02*
X121395000Y26555000D01*
%TO.C,SW3*%
X65600000Y13800000D02*
X65600000Y11200000D01*
X57400000Y15800000D02*
X58400000Y15800000D01*
X59400000Y13800000D02*
X59400000Y11200000D01*
X65500000Y9250000D02*
X59500000Y9250000D01*
X65400000Y15750000D02*
X59600000Y15750000D01*
X57400000Y14800000D02*
X57400000Y15800000D01*
%TO.C,TP5*%
X129200000Y4000000D02*
G75*
G03*
X129200000Y4000000I-1200000J0D01*
G01*
%TD*%
%LPC*%
D14*
%TO.C,H4*%
X135000000Y5000000D03*
%TD*%
D15*
%TO.C,TP3*%
X12000000Y4000000D03*
%TD*%
D16*
%TO.C,R9*%
X45000000Y5000000D03*
X43300000Y5000000D03*
%TD*%
%TO.C,C8*%
X46450000Y24000000D03*
X48150000Y24000000D03*
%TD*%
%TO.C,C9*%
X46650000Y31000000D03*
X48350000Y31000000D03*
%TD*%
%TO.C,C1*%
X115850000Y75000000D03*
X114150000Y75000000D03*
%TD*%
%TO.C,R12*%
X90850000Y5000000D03*
X89150000Y5000000D03*
%TD*%
D15*
%TO.C,TP11*%
X111000000Y85000000D03*
%TD*%
D17*
%TO.C,BZ1*%
X20000000Y42500000D03*
D15*
X25000000Y42500000D03*
%TD*%
%TO.C,TP8*%
X69000000Y60000000D03*
%TD*%
D18*
%TO.C,U4*%
X66190000Y64150000D03*
D19*
X68730000Y64150000D03*
X71270000Y64150000D03*
X73810000Y64150000D03*
%TD*%
D20*
%TO.C,U5*%
X11200000Y58700000D03*
D21*
X13740000Y58700000D03*
X16280000Y58700000D03*
X18820000Y58700000D03*
X18820000Y66320000D03*
X16280000Y66320000D03*
X13740000Y66320000D03*
X11200000Y66320000D03*
%TD*%
D15*
%TO.C,TP7*%
X38000000Y36000000D03*
%TD*%
D16*
%TO.C,R8*%
X41150000Y60000000D03*
X42850000Y60000000D03*
%TD*%
%TO.C,C3*%
X27500000Y82500000D03*
X25800000Y82500000D03*
%TD*%
%TO.C,R1*%
X118350000Y82500000D03*
X116650000Y82500000D03*
%TD*%
D22*
%TO.C,SW2*%
X43500000Y14750000D03*
X51500000Y14750000D03*
X43500000Y10250000D03*
X51500000Y10250000D03*
%TD*%
D15*
%TO.C,TP1*%
X135000000Y63000000D03*
%TD*%
%TO.C,TP6*%
X63000000Y60000000D03*
%TD*%
%TO.C,TP9*%
X44000000Y65000000D03*
%TD*%
D22*
%TO.C,SW4*%
X73500000Y14750000D03*
X81500000Y14750000D03*
X73500000Y10250000D03*
X81500000Y10250000D03*
%TD*%
D23*
%TO.C,C4*%
X115000000Y50850000D03*
X115000000Y49150000D03*
%TD*%
D20*
%TO.C,U1*%
X96000000Y63700000D03*
D21*
X98540000Y63700000D03*
X101080000Y63700000D03*
X103620000Y63700000D03*
X106160000Y63700000D03*
X108700000Y63700000D03*
X111240000Y63700000D03*
X113780000Y63700000D03*
X116320000Y63700000D03*
X118860000Y63700000D03*
X121400000Y63700000D03*
X123940000Y63700000D03*
X126480000Y63700000D03*
X129020000Y63700000D03*
X129020000Y71320000D03*
X126480000Y71320000D03*
X123940000Y71320000D03*
X121400000Y71320000D03*
X118860000Y71320000D03*
X116320000Y71320000D03*
X113780000Y71320000D03*
X111240000Y71320000D03*
X108700000Y71320000D03*
X106160000Y71320000D03*
X103620000Y71320000D03*
X101080000Y71320000D03*
X98540000Y71320000D03*
X96000000Y71320000D03*
%TD*%
D14*
%TO.C,H2*%
X135000000Y85000000D03*
%TD*%
%TO.C,H3*%
X5000000Y5000000D03*
%TD*%
D24*
%TO.C,D2*%
X41212500Y55000000D03*
X43087500Y55000000D03*
%TD*%
D22*
%TO.C,SW1*%
X96000000Y82250000D03*
X104000000Y82250000D03*
X96000000Y77750000D03*
X104000000Y77750000D03*
%TD*%
D23*
%TO.C,R13*%
X33000000Y50850000D03*
X33000000Y49150000D03*
%TD*%
%TO.C,C6*%
X117500000Y26650000D03*
X117500000Y28350000D03*
%TD*%
D14*
%TO.C,H1*%
X5000000Y85000000D03*
%TD*%
D16*
%TO.C,R3*%
X31650000Y82500000D03*
X33350000Y82500000D03*
%TD*%
D25*
%TO.C,Y1*%
X124250000Y57500000D03*
X115750000Y57500000D03*
%TD*%
D16*
%TO.C,R7*%
X70850000Y19000000D03*
X69150000Y19000000D03*
%TD*%
D15*
%TO.C,TP10*%
X115000000Y85000000D03*
%TD*%
D22*
%TO.C,SW5*%
X88500000Y14750000D03*
X96500000Y14750000D03*
X88500000Y10250000D03*
X96500000Y10250000D03*
%TD*%
D16*
%TO.C,R4*%
X36650000Y82500000D03*
X38350000Y82500000D03*
%TD*%
%TO.C,R10*%
X60000000Y5000000D03*
X58300000Y5000000D03*
%TD*%
D23*
%TO.C,C7*%
X132500000Y26650000D03*
X132500000Y28350000D03*
%TD*%
D20*
%TO.C,U3*%
X83975000Y30800000D03*
D21*
X81435000Y30800000D03*
X78895000Y30800000D03*
X76355000Y30800000D03*
X73815000Y30800000D03*
X71275000Y30800000D03*
X68735000Y30800000D03*
X66195000Y30800000D03*
X63655000Y30800000D03*
X61115000Y30800000D03*
X58575000Y30800000D03*
X56035000Y30800000D03*
X56035000Y23180000D03*
X58575000Y23180000D03*
X61115000Y23180000D03*
X63655000Y23180000D03*
X66195000Y23180000D03*
X68735000Y23180000D03*
X71275000Y23180000D03*
X73815000Y23180000D03*
X76355000Y23180000D03*
X78895000Y23180000D03*
X81435000Y23180000D03*
X83975000Y23180000D03*
%TD*%
D24*
%TO.C,D1*%
X106562500Y82500000D03*
X108437500Y82500000D03*
%TD*%
D16*
%TO.C,R6*%
X19150000Y72500000D03*
X20850000Y72500000D03*
%TD*%
%TO.C,R11*%
X75850000Y5000000D03*
X74150000Y5000000D03*
%TD*%
D26*
%TO.C,DS1*%
X62380000Y36380000D03*
D27*
X64920000Y36380000D03*
X67460000Y36380000D03*
X70000000Y36380000D03*
X72540000Y36380000D03*
X75080000Y36380000D03*
X77620000Y36380000D03*
X77620000Y51620000D03*
X75080000Y51620000D03*
X72540000Y51620000D03*
X70000000Y51620000D03*
X67460000Y51620000D03*
X64920000Y51620000D03*
X62380000Y51620000D03*
%TD*%
D16*
%TO.C,R2*%
X116650000Y80000000D03*
X118350000Y80000000D03*
%TD*%
D28*
%TO.C,Q1*%
X35000000Y41050000D03*
X35000000Y42950000D03*
X33000000Y42000000D03*
%TD*%
D15*
%TO.C,TP4*%
X134000000Y77000000D03*
%TD*%
D29*
%TO.C,Y2*%
X11250000Y52500000D03*
X13750000Y52500000D03*
%TD*%
D15*
%TO.C,TP2*%
X135000000Y71000000D03*
%TD*%
D18*
%TO.C,J3*%
X125000000Y82540000D03*
D19*
X127540000Y82540000D03*
X125000000Y80000000D03*
X127540000Y80000000D03*
X125000000Y77460000D03*
X127540000Y77460000D03*
%TD*%
D30*
%TO.C,U2*%
X122295000Y24825000D03*
D31*
X124575000Y31125000D03*
D30*
X126855000Y24825000D03*
%TD*%
D16*
%TO.C,C2*%
X110850000Y75000000D03*
X109150000Y75000000D03*
%TD*%
D23*
%TO.C,R14*%
X40000000Y42850000D03*
X40000000Y41150000D03*
%TD*%
D22*
%TO.C,SW3*%
X58500000Y14750000D03*
X66500000Y14750000D03*
X58500000Y10250000D03*
X66500000Y10250000D03*
%TD*%
D23*
%TO.C,C5*%
X125000000Y50850000D03*
X125000000Y49150000D03*
%TD*%
D16*
%TO.C,R5*%
X11650000Y72500000D03*
X13350000Y72500000D03*
%TD*%
D15*
%TO.C,TP5*%
X128000000Y4000000D03*
%TD*%
D32*
%TO.C,BT1*%
X35000000Y18000016D03*
D33*
X14510000Y18000016D03*
%TD*%
D34*
%TO.C,J2*%
X121000000Y18000000D03*
D35*
X126300000Y15700000D03*
X123800000Y12000000D03*
%TD*%
D18*
%TO.C,J1*%
X27420000Y77500000D03*
D19*
X29960000Y77500000D03*
X32500000Y77500000D03*
X35040000Y77500000D03*
X37580000Y77500000D03*
X40120000Y77500000D03*
%TD*%
M02*
