M48
; DRILL file {KiCad (6.0.5-0)} date Wednesday, July 20, 2022 at 08:00:50 PM
; FORMAT={-:-/ absolute / inch / decimal}
; #@! TF.CreationDate,2022-07-20T20:00:50-04:00
; #@! TF.GenerationSoftware,Kicad,Pcbnew,(6.0.5-0)
; #@! TF.FileFunction,MixedPlating,1,2
FMAT,2
INCH
; #@! TA.AperFunction,Plated,PTH,ViaDrill
T1C0.0160
; #@! TA.AperFunction,Plated,PTH,ComponentDrill
T2C0.0315
; #@! TA.AperFunction,Plated,PTH,ComponentDrill
T3C0.0354
; #@! TA.AperFunction,Plated,PTH,ComponentDrill
T4C0.0394
; #@! TA.AperFunction,Plated,PTH,ComponentDrill
T5C0.0591
; #@! TA.AperFunction,NonPlated,NPTH,ComponentDrill
T6C0.1260
%
G90
G05
T1
X0.5906Y0.1575
X1.4173Y1.7717
X1.5354Y2.3819
X1.5551Y2.2638
X1.565Y2.7165
X1.5748Y2.0669
X1.5748Y1.7717
X1.6732Y0.689
X1.752Y2.1654
X1.7618Y2.3425
X1.9685Y1.1811
X1.9685Y0.8858
X2.0669Y0.689
X2.0965Y1.2697
X2.2638Y0.4921
X2.3201Y0.987
X2.3425Y1.9094
X2.4606Y1.5748
X2.6083Y1.2992
X2.6575Y0.4921
X2.6969Y1.8504
X2.7067Y1.3583
X2.7461Y1.9208
X2.7461Y1.2992
X2.8149Y0.6694
X2.8445Y2.3917
X2.8541Y1.4838
X2.8543Y1.5748
X2.8543Y0.4921
X2.8937Y0.7972
X3.0512Y1.8504
X3.1299Y1.9488
X3.2087Y1.1417
X3.248Y0.689
X3.2677Y0.4429
X3.3563Y0.748
X3.4055Y0.8465
X3.4449Y0.689
X3.4646Y1.2697
X3.4843Y0.9154
X3.5335Y0.8661
X3.6417Y3.4449
X3.6417Y3.0512
X3.7106Y3.189
X3.7795Y2.9134
X3.8386Y0.689
X3.8484Y3.376
X3.9272Y3.3465
X3.9272Y1.1122
X3.9272Y0.4232
X3.9764Y2.9921
X3.9961Y2.9528
X4.0157Y2.6673
X4.0354Y1.2402
X4.065Y2.0965
X4.0945Y2.9134
X4.1043Y3.1594
X4.1339Y2.1752
X4.1732Y1.1811
X4.2028Y3.1693
X4.2028Y2.9823
X4.2224Y0.9055
X4.2815Y1.3583
X4.3406Y1.063
X4.3651Y2.446
X4.3701Y2.6673
X4.4291Y2.5591
X4.4488Y3.0118
X4.4488Y1.1811
X4.4882Y2.126
X4.5276Y1.8701
X4.5472Y1.0138
X4.626Y1.1811
X4.685Y3.0709
X4.8075Y3.0807
X4.9213Y1.8701
X4.9508Y2.7264
X5.0458Y2.4345
X5.0787Y2.4016
X5.2165Y1.1811
T2
X0.4409Y2.611
X0.4409Y2.311
X0.5409Y2.611
X0.5409Y2.311
X0.6409Y2.611
X0.6409Y2.311
X0.7409Y2.611
X0.7409Y2.311
X2.2061Y1.2126
X2.2061Y0.9126
X2.3061Y1.2126
X2.3061Y0.9126
X2.4061Y1.2126
X2.4061Y0.9126
X2.5061Y1.2126
X2.5061Y0.9126
X2.6061Y1.2126
X2.6061Y0.9126
X2.7061Y1.2126
X2.7061Y0.9126
X2.8061Y1.2126
X2.8061Y0.9126
X2.9061Y1.2126
X2.9061Y0.9126
X3.0061Y1.2126
X3.0061Y0.9126
X3.1061Y1.2126
X3.1061Y0.9126
X3.2061Y1.2126
X3.2061Y0.9126
X3.3061Y1.2126
X3.3061Y0.9126
X3.7795Y2.8079
X3.7795Y2.5079
X3.8795Y2.8079
X3.8795Y2.5079
X3.9795Y2.8079
X3.9795Y2.5079
X4.0795Y2.8079
X4.0795Y2.5079
X4.1795Y2.8079
X4.1795Y2.5079
X4.2795Y2.8079
X4.2795Y2.5079
X4.3795Y2.8079
X4.3795Y2.5079
X4.4795Y2.8079
X4.4795Y2.5079
X4.5795Y2.8079
X4.5795Y2.5079
X4.6795Y2.8079
X4.6795Y2.5079
X4.7795Y2.8079
X4.7795Y2.5079
X4.8795Y2.8079
X4.8795Y2.5079
X4.9795Y2.8079
X4.9795Y2.5079
X5.0795Y2.8079
X5.0795Y2.5079
T3
X2.4559Y2.0323
X2.4559Y1.4323
X2.5559Y2.0323
X2.5559Y1.4323
X2.6559Y2.0323
X2.6559Y1.4323
X2.7559Y2.0323
X2.7559Y1.4323
X2.8559Y2.0323
X2.8559Y1.4323
X2.9559Y2.0323
X2.9559Y1.4323
X3.0559Y2.0323
X3.0559Y1.4323
T4
X0.4724Y0.1575
X0.7874Y1.6732
X0.9843Y1.6732
X1.0795Y3.0512
X1.1795Y3.0512
X1.2795Y3.0512
X1.3795Y3.0512
X1.4795Y3.0512
X1.4961Y1.4173
X1.5795Y3.0512
X1.7323Y2.5591
X2.4803Y2.3622
X2.6059Y2.5256
X2.7059Y2.5256
X2.7165Y2.3622
X2.8059Y2.5256
X2.9059Y2.5256
X4.3701Y3.3465
X4.5276Y3.3465
X4.9213Y3.2496
X4.9213Y3.1496
X4.9213Y3.0496
X5.0213Y3.2496
X5.0213Y3.1496
X5.0213Y3.0496
X5.0394Y0.1575
X5.2756Y3.0315
X5.315Y2.7953
X5.315Y2.4803
T5
X0.5713Y0.7087
X1.378Y0.7087
T6
X0.1969Y3.3465
X0.1969Y0.1969
X5.315Y3.3465
X5.315Y0.1969
T4
G00X4.813Y0.7087
M15
G01X4.7146Y0.7087
M16
G05
G00X4.874Y0.5118
M15
G01X4.874Y0.4331
M16
G05
G00X4.9724Y0.6575
M15
G01X4.9724Y0.5787
M16
G05
T0
M30
