%TF.GenerationSoftware,KiCad,Pcbnew,(6.0.5-0)*%
%TF.CreationDate,2022-07-19T21:11:47-04:00*%
%TF.ProjectId,raaid_clock_final,72616169-645f-4636-9c6f-636b5f66696e,rev?*%
%TF.SameCoordinates,PX4c4b400PY8a48640*%
%TF.FileFunction,Soldermask,Bot*%
%TF.FilePolarity,Negative*%
%FSLAX46Y46*%
G04 Gerber Fmt 4.6, Leading zero omitted, Abs format (unit mm)*
G04 Created by KiCad (PCBNEW (6.0.5-0)) date 2022-07-19 21:11:47*
%MOMM*%
%LPD*%
G01*
G04 APERTURE LIST*
G04 Aperture macros list*
%AMRoundRect*
0 Rectangle with rounded corners*
0 $1 Rounding radius*
0 $2 $3 $4 $5 $6 $7 $8 $9 X,Y pos of 4 corners*
0 Add a 4 corners polygon primitive as box body*
4,1,4,$2,$3,$4,$5,$6,$7,$8,$9,$2,$3,0*
0 Add four circle primitives for the rounded corners*
1,1,$1+$1,$2,$3*
1,1,$1+$1,$4,$5*
1,1,$1+$1,$6,$7*
1,1,$1+$1,$8,$9*
0 Add four rect primitives between the rounded corners*
20,1,$1+$1,$2,$3,$4,$5,0*
20,1,$1+$1,$4,$5,$6,$7,0*
20,1,$1+$1,$6,$7,$8,$9,0*
20,1,$1+$1,$8,$9,$2,$3,0*%
G04 Aperture macros list end*
%ADD10C,2.000000*%
%ADD11C,3.200000*%
%ADD12R,2.000000X2.000000*%
%ADD13R,1.700000X1.700000*%
%ADD14O,1.700000X1.700000*%
%ADD15R,1.600000X1.600000*%
%ADD16O,1.600000X1.600000*%
%ADD17R,1.400000X1.400000*%
%ADD18C,1.400000*%
%ADD19R,3.000000X3.000000*%
%ADD20C,3.000000*%
%ADD21RoundRect,0.500000X1.750000X0.500000X-1.750000X0.500000X-1.750000X-0.500000X1.750000X-0.500000X0*%
%ADD22RoundRect,0.500000X-0.500000X1.500000X-0.500000X-1.500000X0.500000X-1.500000X0.500000X1.500000X0*%
G04 APERTURE END LIST*
D10*
%TO.C,TP11*%
X111000000Y85000000D03*
%TD*%
%TO.C,TP10*%
X115000000Y85000000D03*
%TD*%
%TO.C,TP9*%
X44000000Y65000000D03*
%TD*%
%TO.C,TP8*%
X69000000Y60000000D03*
%TD*%
%TO.C,TP7*%
X38000000Y36000000D03*
%TD*%
%TO.C,TP6*%
X63000000Y60000000D03*
%TD*%
%TO.C,TP5*%
X128000000Y4000000D03*
%TD*%
%TO.C,TP4*%
X134000000Y77000000D03*
%TD*%
%TO.C,TP3*%
X12000000Y4000000D03*
%TD*%
%TO.C,TP2*%
X135000000Y71000000D03*
%TD*%
%TO.C,TP1*%
X135000000Y63000000D03*
%TD*%
D11*
%TO.C,H4*%
X135000000Y5000000D03*
%TD*%
D12*
%TO.C,BZ1*%
X20000000Y42500000D03*
D10*
X25000000Y42500000D03*
%TD*%
D13*
%TO.C,U4*%
X66190000Y64150000D03*
D14*
X68730000Y64150000D03*
X71270000Y64150000D03*
X73810000Y64150000D03*
%TD*%
D15*
%TO.C,U5*%
X11200000Y58700000D03*
D16*
X13740000Y58700000D03*
X16280000Y58700000D03*
X18820000Y58700000D03*
X18820000Y66320000D03*
X16280000Y66320000D03*
X13740000Y66320000D03*
X11200000Y66320000D03*
%TD*%
D15*
%TO.C,U1*%
X96000000Y63700000D03*
D16*
X98540000Y63700000D03*
X101080000Y63700000D03*
X103620000Y63700000D03*
X106160000Y63700000D03*
X108700000Y63700000D03*
X111240000Y63700000D03*
X113780000Y63700000D03*
X116320000Y63700000D03*
X118860000Y63700000D03*
X121400000Y63700000D03*
X123940000Y63700000D03*
X126480000Y63700000D03*
X129020000Y63700000D03*
X129020000Y71320000D03*
X126480000Y71320000D03*
X123940000Y71320000D03*
X121400000Y71320000D03*
X118860000Y71320000D03*
X116320000Y71320000D03*
X113780000Y71320000D03*
X111240000Y71320000D03*
X108700000Y71320000D03*
X106160000Y71320000D03*
X103620000Y71320000D03*
X101080000Y71320000D03*
X98540000Y71320000D03*
X96000000Y71320000D03*
%TD*%
D11*
%TO.C,H2*%
X135000000Y85000000D03*
%TD*%
%TO.C,H3*%
X5000000Y5000000D03*
%TD*%
%TO.C,H1*%
X5000000Y85000000D03*
%TD*%
D15*
%TO.C,U3*%
X83975000Y30800000D03*
D16*
X81435000Y30800000D03*
X78895000Y30800000D03*
X76355000Y30800000D03*
X73815000Y30800000D03*
X71275000Y30800000D03*
X68735000Y30800000D03*
X66195000Y30800000D03*
X63655000Y30800000D03*
X61115000Y30800000D03*
X58575000Y30800000D03*
X56035000Y30800000D03*
X56035000Y23180000D03*
X58575000Y23180000D03*
X61115000Y23180000D03*
X63655000Y23180000D03*
X66195000Y23180000D03*
X68735000Y23180000D03*
X71275000Y23180000D03*
X73815000Y23180000D03*
X76355000Y23180000D03*
X78895000Y23180000D03*
X81435000Y23180000D03*
X83975000Y23180000D03*
%TD*%
D17*
%TO.C,DS1*%
X62380000Y36380000D03*
D18*
X64920000Y36380000D03*
X67460000Y36380000D03*
X70000000Y36380000D03*
X72540000Y36380000D03*
X75080000Y36380000D03*
X77620000Y36380000D03*
X77620000Y51620000D03*
X75080000Y51620000D03*
X72540000Y51620000D03*
X70000000Y51620000D03*
X67460000Y51620000D03*
X64920000Y51620000D03*
X62380000Y51620000D03*
%TD*%
D13*
%TO.C,J3*%
X125000000Y82540000D03*
D14*
X127540000Y82540000D03*
X125000000Y80000000D03*
X127540000Y80000000D03*
X125000000Y77460000D03*
X127540000Y77460000D03*
%TD*%
D19*
%TO.C,BT1*%
X35000000Y18000016D03*
D20*
X14510000Y18000016D03*
%TD*%
D21*
%TO.C,J2*%
X122500000Y16420000D03*
D22*
X127800000Y14120000D03*
X125300000Y10420000D03*
%TD*%
D13*
%TO.C,J1*%
X27420000Y77500000D03*
D14*
X29960000Y77500000D03*
X32500000Y77500000D03*
X35040000Y77500000D03*
X37580000Y77500000D03*
X40120000Y77500000D03*
%TD*%
M02*
